<svg height="162.295" viewBox="0 0 266.001 162.295" width="266.001" xmlns="http://www.w3.org/2000/svg" xmlns:xlink="http://www.w3.org/1999/xlink"><linearGradient id="a" gradientUnits="objectBoundingBox" x1="9.046" x2="9.046" y1="1"><stop offset="0" stop-color="#808080" stop-opacity=".251"/><stop offset=".54" stop-color="#808080" stop-opacity=".122"/><stop offset="1" stop-color="#808080" stop-opacity=".102"/></linearGradient><path d="m294 212.21a41.983 41.983 0 0 1 -6.073 21.829 27.426 27.426 0 0 1 -9.84 20.664 33.657 33.657 0 0 1 -4.9 3.553c-.07.044-.142.086-.214.128l-.393.233-.123.072a38.275 38.275 0 0 1 -18.857 4.836h-175.1q-2.093 0-4.148-.167a49.1 49.1 0 0 1 -14.2-3.288q-1.33-.526-2.609-1.13-.609-.286-1.207-.588c-.249-.126-.5-.256-.744-.386a43.581 43.581 0 0 1 -8.013-5.439c-7.906-6.8-12.807-16.186-12.807-26.556a41.969 41.969 0 0 1 -6.772-22.943c0-23.052 18.425-41.739 41.156-41.739.7 0 1.4.021 2.093.058a2.127 2.127 0 0 1 .3.014 70.91 70.91 0 0 1 15.114-17.815c16.8-14.393 41.346-23.466 68.693-23.466 22.977 0 43.981 6.406 60.069 16.99a40.5 40.5 0 0 1 19.985-5.243c22.726 0 41.156 18.687 41.156 41.739a43.014 43.014 0 0 1 -.233 4.367 41.853 41.853 0 0 1 17.667 34.277z" fill="#307df1" opacity=".1" transform="translate(-28 -115.644)"/><g opacity=".2" transform="translate(18.471 81.552)"><g fill="#3f3d56"><path d="m151.243 709.773a2.773 2.773 0 0 1 -.023.314q-1.33-.526-2.609-1.13a2.117 2.117 0 0 1 -1.207-.588c-.249-.126-.5-.256-.744-.386a3.211 3.211 0 0 1 .188-.339 2.163 2.163 0 0 1 3.937.121 3.922 3.922 0 0 1 .458 2.008z" transform="translate(-137.541 -647.214)"/><path d="m150.479 692.653a3.925 3.925 0 0 1 -.584 1.972 2.34 2.34 0 0 1 -2.009 1.2l-.165-.012a2.116 2.116 0 0 1 -1.207-.588 2.911 2.911 0 0 1 -.556-.726 4.081 4.081 0 0 1 .126-3.981 2.163 2.163 0 0 1 3.937.121 3.923 3.923 0 0 1 .458 2.014z" transform="translate(-136.651 -634.075)"/><ellipse cx="3.258" cy="2.488" rx="3.258" ry="2.488" transform="matrix(.03158521 -.99950106 .99950106 .03158521 8.878 57.705)"/><ellipse cx="3.258" cy="2.488" rx="3.258" ry="2.488" transform="matrix(.03158521 -.99950106 .99950106 .03158521 9.002 53.724)"/><ellipse cx="3.258" cy="2.488" rx="3.258" ry="2.488" transform="matrix(.02998026 -.99955049 .99955049 .02998026 9.151 49.489)"/></g><path d="m110.7 470.76a11.546 11.546 0 0 1 -.884-1.4l6.571-.867-7.073-.17a11.947 11.947 0 0 1 .072-9.45l9.329 5.22-8.545-6.708a11.924 11.924 0 1 1 19.262 13.951 11.884 11.884 0 0 1 1.29 2.216l-8.622 4.148 9.145-2.751a11.937 11.937 0 0 1 -2.283 11.14 11.923 11.923 0 1 1 -18.732-.591 11.923 11.923 0 0 1 .465-14.737z" fill="#307df1" transform="translate(-107.44 -451.737)"/><path d="m131.752 567.49a11.872 11.872 0 0 1 -2.79 7.287 11.923 11.923 0 1 1 -18.732-.591c-1.53-2.076 21.564-8.036 21.522-6.696z" opacity=".1" transform="translate(-107.44 -540.426)"/></g><path d="m393.5 225.281v111.419a4.281 4.281 0 0 1 -4.281 4.281h-170.938a4.215 4.215 0 0 1 -1.181-.167 4.274 4.274 0 0 1 -3.1-4.114v-97.9a2.127 2.127 0 0 1 .3.014 70.91 70.91 0 0 1 15.111-17.814h159.812a4.281 4.281 0 0 1 4.277 4.281z" fill="#fff" transform="translate(-170.752 -193.098)"/><rect fill="#3f3d56" height="8.361" rx="4.181" width="32.048" x="165.592" y="42.372"/><rect height="5.564" opacity=".1" rx="2.782" width="27.87" x="167.68" y="43.769"/><rect fill="#307df1" height="4.955" rx="2.477" width="10.063" x="184.789" y="44.074"/><ellipse cx="189.744" cy="46.553" fill="#fff" rx="1.549" ry="1.549"/><rect fill="#3f3d56" height="8.361" rx="4.181" width="32.048" x="165.592" y="97.49"/><rect height="5.564" opacity=".1" rx="2.782" width="27.87" x="167.68" y="98.887"/><rect fill="#307df1" height="4.955" rx="2.477" width="10.063" x="184.789" y="99.192"/><ellipse cx="189.744" cy="101.671" fill="#fff" rx="1.549" ry="1.549"/><rect fill="#3f3d56" height="8.361" rx="4.181" width="32.048" x="165.592" y="125.048"/><rect height="5.564" opacity=".1" rx="2.782" width="27.87" x="167.68" y="126.447"/><rect fill="#307df1" height="4.955" rx="2.477" width="10.063" x="184.789" y="126.752"/><ellipse cx="189.744" cy="129.229" fill="#fff" rx="1.549" ry="1.549"/><rect fill="#c2d5f2" height="4.955" rx="2.477" width="18.734" x="68.36" y="37.107"/><rect fill="#dae4f2" height="4.955" rx="2.477" width="52.021" x="68.36" y="44.074"/><rect fill="#79aaf2" height="4.955" rx="2.477" width="52.021" x="68.36" y="51.042"/><rect fill="#aac7f2" height="4.955" rx="2.477" width="18.734" x="68.36" y="64.665"/><rect fill="#498df2" height="4.955" rx="2.477" width="38.831" x="68.36" y="71.634"/><rect fill="#aac7f2" height="4.955" rx="2.477" width="52.021" x="68.36" y="78.6"/><rect fill="#79aaf2" height="4.955" rx="2.477" width="18.734" x="68.36" y="92.226"/><rect fill="#79aaf2" height="4.955" rx="2.477" width="52.021" x="68.36" y="99.192"/><rect fill="#aac7f2" height="4.955" rx="2.477" width="32.32" x="68.36" y="106.16"/><rect fill="#dae4f2" height="4.955" rx="2.477" width="18.734" x="68.36" y="119.783"/><rect fill="#91b8f2" height="4.955" rx="2.477" width="52.021" x="68.36" y="126.752"/><rect fill="#c2d5f2" height="4.955" rx="2.477" width="41.853" x="68.36" y="133.718"/><path d="m60.454 60.452h151.602" fill="none" opacity=".7" stroke="#3f3d56" stroke-linecap="round" stroke-miterlimit="10"/><path d="m60.454 88.47h151.602" fill="none" opacity=".7" stroke="#3f3d56" stroke-linecap="round" stroke-miterlimit="10"/><path d="m60.454 116.489h151.602" fill="none" opacity=".7" stroke="#3f3d56" stroke-linecap="round" stroke-miterlimit="10"/><path d="m60.454 145.205h151.602" fill="none" opacity=".7" stroke="#3f3d56" stroke-linecap="round" stroke-miterlimit="10"/><ellipse cx="184.851" cy="159.853" fill="#307df1" opacity=".1" rx="34.338" ry="2.441"/><ellipse cx="16.397" cy="32.826" fill="#307df1" opacity=".1" rx="5.029" ry="5.029"/><ellipse cx="37.358" cy="5.029" fill="#307df1" opacity=".1" rx="5.029" ry="5.029"/><ellipse cx="35.654" cy="24.126" fill="#307df1" opacity=".1" rx="8.429" ry="8.429"/><rect fill="#3f3d56" height="8.361" rx="4.181" width="32.048" x="165.592" y="69.93"/><rect height="5.564" opacity=".1" rx="2.782" width="27.87" x="167.68" y="71.329"/><path d="m727.275 483.7c.365-.053.73-.128 1.088-.212a3.4 3.4 0 0 1 -.307 1.032 4.5 4.5 0 0 1 -1.69 1.5.523.523 0 0 0 -.66-.044c-.77.465-1.383 1.121-2.2 1.521-.286.139-.584.251-.863.407a4.65 4.65 0 0 0 -1.628 1.681 1.155 1.155 0 0 0 -.193 1.193 1.034 1.034 0 0 0 .33.3 1.879 1.879 0 0 0 1.132.337c.232-.021.465-.109.718-.149.319-.056.644-.028.965-.056a5.641 5.641 0 0 0 1.358-.351l1.6-.558a9.224 9.224 0 0 0 1.314-.539c.254-.137.493-.3.751-.423a6.057 6.057 0 0 1 .9-.316l.907-.265a.885.885 0 0 1 .409-.053c.125.023.232.1.36.135a1.088 1.088 0 0 0 .581-.056l1.051-.3a1.98 1.98 0 0 0 .625-.26 1.905 1.905 0 0 0 .565-1.614 12.226 12.226 0 0 0 -.3-2.669.831.831 0 0 0 -.342.258 5 5 0 0 0 -.346-.435 5.187 5.187 0 0 1 -1.049-1.937 3.407 3.407 0 0 0 .93-1.051 22.932 22.932 0 0 0 -2.255-6.138c-.37-.609-.793-1.181-1.163-1.781-1.1-1.744-1.325-3.953-2.583-5.58a.967.967 0 0 1 0-1.135c.144-.191.377-.37.333-.607-.033-.17-.209-.325-.142-.484.033-.077.112-.119.172-.174.214-.2.186-.537.207-.83a4.04 4.04 0 0 1 .909-1.99 1.221 1.221 0 0 1 .335-.363c.114-.07.249-.1.363-.172.4-.253.372-.842.563-1.279.251-.577.884-.867 1.3-1.335.528-.6.663-1.423 1.218-1.942a1.426 1.426 0 0 1 .184-.149 9.355 9.355 0 0 0 -.328 2.709c-.053 3.146.728 6.4.363 9.533a6.576 6.576 0 0 0 3.372 6.19 16.117 16.117 0 0 0 2.625 1.114c1.344.481 2.683.977 4 1.53q1.395.586 2.753 1.258a34.247 34.247 0 0 1 3.255 1.816 12.6 12.6 0 0 1 3.506 2.911 2.777 2.777 0 0 0 1.549-.57c.353.279.781.491 1.114.8a3.362 3.362 0 0 1 .883 1.735h-.139c.016.309.03.618.047.93a.4.4 0 0 1 -.035.233.423.423 0 0 1 -.126.114l-.716.486c-.521.351-1.1.8-1.123 1.425a.725.725 0 0 0 .156.509 1.1 1.1 0 0 0 .637.288 11.226 11.226 0 0 0 3.785.349 2.49 2.49 0 0 0 1.611-.744 3.19 3.19 0 0 0 .563-1.544c.156-.93.286-1.881.388-2.825a6.247 6.247 0 0 1 .386-1.876.232.232 0 0 1 .1-.126c.053-.023.116 0 .172-.023s.093-.109.112-.179a11.1 11.1 0 0 0 .333-2.809 1.892 1.892 0 0 0 -.109-.723 1.46 1.46 0 0 0 -1-.767 7.922 7.922 0 0 0 -1.286-.153 6.388 6.388 0 0 1 -1.067-.2.977.977 0 0 0 -.444-.058.311.311 0 0 0 -.27.309.4.4 0 0 0 .056.151l-.363-.072c-.293-.053-.7-.181-1.137-.288a2.01 2.01 0 0 1 .014-.233.44.44 0 0 0 -.247-.4l-6.143-3.283-1.149-.614c-2.516-1.346-5.115-2.59-7.638-3.937-.167.051-.307-.142-.356-.314s-.084-.377-.244-.453c-.079-.037-.184-.035-.232-.1a.276.276 0 0 1 -.044-.207c.081-1.225.958-2.355.784-3.569a4.515 4.515 0 0 1 -.232-1.539 7.294 7.294 0 0 1 .465-.972c.3-.749 0-1.648.33-2.381a5.51 5.51 0 0 0 .444-1.516 10.416 10.416 0 0 1 .93-3.009 5.43 5.43 0 0 1 .865-1.318c.184-.2.391-.379.567-.586a4.9 4.9 0 0 0 .884-2.325 11.121 11.121 0 0 0 .121-4.515 6.462 6.462 0 0 1 -.286-1.518c0-.618.249-1.328-.051-1.823a1.6 1.6 0 0 0 .579-.993 1.283 1.283 0 0 1 .081-.412 1.194 1.194 0 0 1 .388-.349 1.607 1.607 0 0 0 .6-1.6c.318.144.653-.179.8-.5s.265-.7.588-.842a4.838 4.838 0 0 1 .7-.1c.37-.1.6-.465.856-.737a6.6 6.6 0 0 1 1.976-1.218 22.4 22.4 0 0 0 5.383-4.339 18.223 18.223 0 0 0 2.325-2.618c.184-.272.351-.553.509-.842l.042-.021.014.051c.026.1.056.2.086.3.074.233.158.481.233.718a5.39 5.39 0 0 0 1.035 1.969 2.437 2.437 0 0 0 .53.412 3.557 3.557 0 0 0 1.365.409c.181.023.365.037.549.047s.367.016.549.021l3.762.1c-1.293-1.874-1.4-4.311-1.309-6.592.216-5.859 1.358-11.772.3-17.539a4.5 4.5 0 0 0 -.723-1.955 4.016 4.016 0 0 0 -2.367-1.293 14.214 14.214 0 0 1 -2.655-.681 11.193 11.193 0 0 0 -2.093-1 4.609 4.609 0 0 0 -1.674.028q-1.018.151-2.025.358l-.163.035h.007l-.112.026h-.03l-.1.023h-.037l-.093.026-.042.012-.086.028-.049.016-.079.026-.051.021-.074.028-.056.023-.067.03-.056.028-.063.03-.056.033-.058.033-.056.037-.053.035-.056.039-.047.037-.053.047-.044.04a.549.549 0 0 0 -.051.053l-.04.04a.678.678 0 0 0 -.051.065c0 .012-.021.023-.03.037s-.042.06-.063.1v.014a1.41 1.41 0 0 0 -.128.277c-.016.049-.032.1-.044.146a2.232 2.232 0 0 0 -.051.3.706.706 0 0 1 -.012.156v.309a4.55 4.55 0 0 0 .058.521 5.666 5.666 0 0 0 -.27 9.587 2.558 2.558 0 0 1 .019.277v.06a7.658 7.658 0 0 1 -.1.981 13.641 13.641 0 0 0 -2.79-.249c-.558 0-1.121.051-1.683.1a25.348 25.348 0 0 1 -1.683-2.279l-1.242-1.821a17.328 17.328 0 0 1 -1.163-1.86c-.3-.591-.542-1.218-.881-1.79-.7-1.179-1.837-2.181-1.979-3.546l-.328.067c-.179-.293-.4-.6-.488-.772a15.243 15.243 0 0 1 -1.032-3.023 4.647 4.647 0 0 0 -.5-1.567 3.531 3.531 0 0 0 -.723-.767 4.782 4.782 0 0 0 -1.549-.977 2 2 0 0 0 -1.583.093 2.336 2.336 0 0 0 -.232-.093 1.918 1.918 0 0 0 -1.758.2 2.363 2.363 0 0 0 -.772 1.628 4.018 4.018 0 0 0 .414 2.469 9.77 9.77 0 0 0 1.986 2.055 8.046 8.046 0 0 1 1.249 1.553 17.005 17.005 0 0 1 -.1 3.769c-.088.535-.232 1.06-.274 1.6-.17 1.949.844 3.9.481 5.813a1.418 1.418 0 0 0 .658 1.5 7.252 7.252 0 0 0 1.7.465c1.123.288 2.093 1.007 3.227 1.274.523.126 1.067.149 1.588.288l.081.026a3.784 3.784 0 0 0 -.835 1.586c-.233.977-.014 2.021-.246 3a6.682 6.682 0 0 1 -1.142 2.188l-2.73 3.953a24.211 24.211 0 0 1 -2.011 2.644c-1.253 1.37-3.416 2.455-4.053 4.1-.014-.04-.033-.079-.047-.119-.9.663-1.239 1.9-1.958 2.755-.351.416-.784.753-1.163 1.139a13.14 13.14 0 0 0 -1.286 1.6 28.355 28.355 0 0 0 -2.911 4.636c-.4.865-.709 1.765-1.028 2.66-1.251 3.527-3.292 6.873-4.141 10.521a19.8 19.8 0 0 0 -.83 2.607 5.04 5.04 0 0 0 .814 2.765c.7 1.311 1.474 2.586 2.093 3.934.365.786.681 1.6 1.088 2.365.444.837.988 1.614 1.453 2.439a30.578 30.578 0 0 1 2.39 6.775zm15.383-66.628-.112-.056a3.855 3.855 0 0 1 -1.128-.746 8.726 8.726 0 0 1 -1.746-4.12c-.037-.172-.07-.342-.1-.514a24.728 24.728 0 0 1 3.086 5.441z" fill="url(#a)" transform="translate(-558.66 -330.01)"/><path d="m782.023 404.139a4.562 4.562 0 0 0 -.493-1.556 3.524 3.524 0 0 0 -.725-.763 4.823 4.823 0 0 0 -1.553-.97 1.939 1.939 0 0 0 -1.758.2 2.347 2.347 0 0 0 -.774 1.628 3.968 3.968 0 0 0 .414 2.453 10.082 10.082 0 0 0 1.99 2.041 8 8 0 0 1 1.3 1.628 4.694 4.694 0 0 0 .591.865 1.125 1.125 0 0 0 .93.374 1.628 1.628 0 0 0 .76-.449c.284-.249 1.046-.7 1.07-1.086.019-.319-.577-1.039-.723-1.339a15.206 15.206 0 0 1 -1.029-3.026z" fill="#fbbebe" transform="translate(-602.594 -331.036)"/><path d="m782.023 404.139a4.562 4.562 0 0 0 -.493-1.556 3.524 3.524 0 0 0 -.725-.763 4.823 4.823 0 0 0 -1.553-.97 1.939 1.939 0 0 0 -1.758.2 2.347 2.347 0 0 0 -.774 1.628 3.968 3.968 0 0 0 .414 2.453 10.082 10.082 0 0 0 1.99 2.041 8 8 0 0 1 1.3 1.628 4.694 4.694 0 0 0 .591.865 1.125 1.125 0 0 0 .93.374 1.628 1.628 0 0 0 .76-.449c.284-.249 1.046-.7 1.07-1.086.019-.319-.577-1.039-.723-1.339a15.206 15.206 0 0 1 -1.029-3.026z" opacity=".1" transform="translate(-602.594 -331.036)"/><path d="m809.013 444.8a13.693 13.693 0 0 0 -3.762-.465c-2.118.03-4.3.544-6.318-.107a11.021 11.021 0 0 1 -1.511-.644 3.856 3.856 0 0 1 -1.13-.742 8.6 8.6 0 0 1 -1.749-4.092 27.308 27.308 0 0 1 -.477-4.355 3.333 3.333 0 0 1 -1.651.435 1.213 1.213 0 0 1 -1.163-1.067 17.663 17.663 0 0 1 -.077 4.057c-.088.53-.232 1.053-.272 1.588-.172 1.937.844 3.871.481 5.78a1.4 1.4 0 0 0 .658 1.493 7.387 7.387 0 0 0 1.7.465c1.123.286 2.093 1 3.232 1.267.523.123 1.07.147 1.59.286.742.2 1.418.623 2.176.756.567.1 1.163.033 1.728.081.5.042.988.172 1.49.186a4.294 4.294 0 0 0 3.2-1.583 13.872 13.872 0 0 0 1.855-3.339z" fill="#307df1" transform="translate(-613.501 -356.388)"/><path d="m809.013 444.8a13.693 13.693 0 0 0 -3.762-.465c-2.118.03-4.3.544-6.318-.107a11.021 11.021 0 0 1 -1.511-.644 3.856 3.856 0 0 1 -1.13-.742 8.6 8.6 0 0 1 -1.749-4.092 27.308 27.308 0 0 1 -.477-4.355 3.333 3.333 0 0 1 -1.651.435 1.213 1.213 0 0 1 -1.163-1.067 17.663 17.663 0 0 1 -.077 4.057c-.088.53-.232 1.053-.272 1.588-.172 1.937.844 3.871.481 5.78a1.4 1.4 0 0 0 .658 1.493 7.387 7.387 0 0 0 1.7.465c1.123.286 2.093 1 3.232 1.267.523.123 1.07.147 1.59.286.742.2 1.418.623 2.176.756.567.1 1.163.033 1.728.081.5.042.988.172 1.49.186a4.294 4.294 0 0 0 3.2-1.583 13.872 13.872 0 0 0 1.855-3.339z" fill="#2663bf" opacity=".1" transform="translate(-613.501 -356.388)"/><path d="m868.93 737.17a3.182 3.182 0 0 1 1.086.34 2.556 2.556 0 0 1 .944 1.274 11.057 11.057 0 0 1 .635 3.978 8.564 8.564 0 0 1 -.409 3.225 2.053 2.053 0 0 1 -.537.844 1.936 1.936 0 0 1 -.739.358 1.981 1.981 0 0 1 -1.735-.214 2.763 2.763 0 0 1 -.774-1.809 4.189 4.189 0 0 0 -1.03-2.46c-.493-.465-1.2-.7-1.558-1.26a2.689 2.689 0 0 1 .07-2.314c.233-.653.584-1.976 1.267-2.311s2.071.221 2.78.349z" fill="#fbbebe" transform="translate(-670.055 -588.901)"/><path d="m750.2 748.24a5.15 5.15 0 0 0 1.065 1.979c.3.349.681.772.523 1.2a1.121 1.121 0 0 1 -.286.384 14.7 14.7 0 0 1 -8.5 3.655.3.3 0 0 1 -.151 0c-.091-.04-.114-.156-.123-.256a3.142 3.142 0 0 1 0-.979 2.944 2.944 0 0 1 1.472-1.718 4.573 4.573 0 0 0 1.73-1.511c.453-.851.263-1.96.8-2.758a2.876 2.876 0 0 1 2.025-1.046c.267-.042.837-.335 1.065-.2s.3.983.38 1.25z" fill="#fbbebe" transform="translate(-576.508 -596.762)"/><path d="m871.161 737.3a.309.309 0 0 1 .27-.307 1.009 1.009 0 0 1 .444.056 6.165 6.165 0 0 0 1.067.2 7.928 7.928 0 0 1 1.288.151 1.458 1.458 0 0 1 1 .76 1.889 1.889 0 0 1 .109.721 10.951 10.951 0 0 1 -.333 2.79c-.019.07-.046.151-.114.177s-.116 0-.17.026a.21.21 0 0 0 -.1.126 6.148 6.148 0 0 0 -.388 1.86c-.1.93-.232 1.874-.388 2.8a3.08 3.08 0 0 1 -.563 1.535 2.5 2.5 0 0 1 -1.614.739 11.372 11.372 0 0 1 -3.79-.346 1.11 1.11 0 0 1 -.639-.286.719.719 0 0 1 -.156-.507c.028-.626.6-1.067 1.123-1.416l.719-.481a.371.371 0 0 0 .126-.114.388.388 0 0 0 .035-.233l-.047-.93a2.634 2.634 0 0 1 2.295 1.428c.1.2.193.428.4.5a.526.526 0 0 0 .626-.379 1.613 1.613 0 0 0 -.021-.807c-.421-2.248-.321-4.56-.577-6.831a1.541 1.541 0 0 0 -.232-.721c-.114-.15-.345-.301-.37-.511z" fill="#535461" transform="translate(-671.979 -589.111)"/><rect fill="#307df1" height="4.955" rx="2.477" transform="matrix(-1 0 0 -1 178.441 76.589)" width="10.063"/><ellipse cx="173.487" cy="74.111" fill="#fff" rx="1.549" ry="1.549"/><path d="m730.82 765.006c-.1.174-.27.309-.367.488a.419.419 0 0 0 .079.546.54.54 0 0 0 .333.033 11.187 11.187 0 0 0 6.045-2.739 4.244 4.244 0 0 0 .742-.811c.2-.3.365-.667.7-.793a12.074 12.074 0 0 1 .312 2.662 1.9 1.9 0 0 1 -.565 1.6 2 2 0 0 1 -.628.256l-1.051.3a1.119 1.119 0 0 1 -.584.056c-.123-.033-.233-.112-.36-.135a.884.884 0 0 0 -.409.054l-.909.265a5.774 5.774 0 0 0 -.9.314c-.26.123-.5.281-.753.418a9.024 9.024 0 0 1 -1.316.535l-1.6.556a5.8 5.8 0 0 1 -1.36.349c-.321.028-.649 0-.967.053a6.618 6.618 0 0 1 -.721.149 1.885 1.885 0 0 1 -1.132-.335 1.051 1.051 0 0 1 -.33-.293c-.232-.356-.03-.826.193-1.186a4.687 4.687 0 0 1 1.628-1.67c.279-.153.579-.265.865-.4.816-.4 1.432-1.056 2.2-1.507.73-.427 1.197.673.855 1.235z" fill="#535461" transform="translate(-562.917 -608.099)"/><path d="m846.69 473.845a6.643 6.643 0 0 0 2.827 1.1 11.5 11.5 0 0 0 1.6.086 40.657 40.657 0 0 0 6.657-.556 8.241 8.241 0 0 1 -2.093-3.255 5.372 5.372 0 0 1 -.1-2.039 15.338 15.338 0 0 1 .623-2.558 18.05 18.05 0 0 1 -2.813-.072c-.532-.056-1.839-.539-2.3-.172s-.107 1.551-.1 2.107a.555.555 0 0 1 0 .06 6.732 6.732 0 0 1 -.537 2.46 4.637 4.637 0 0 1 -3.764 2.839z" fill="#fbbebe" transform="translate(-656.33 -381.317)"/><path d="m864.727 468.443a5.594 5.594 0 0 0 4.592.7 15.363 15.363 0 0 1 .623-2.558 18.046 18.046 0 0 1 -2.813-.072c-.532-.056-1.839-.539-2.3-.172s-.109 1.547-.102 2.102z" opacity=".1" transform="translate(-670.068 -381.287)"/><ellipse cx="197.728" cy="82.204" fill="#fbbebe" rx="5.606" ry="5.606"/><path d="m776.09 509.022a2.611 2.611 0 0 0 1.265 2.248 5.04 5.04 0 0 0 1.372.484 26.936 26.936 0 0 0 7.824.965 4.3 4.3 0 0 0 1.66-.349 1.781 1.781 0 0 0 1.025-1.281 1.2 1.2 0 0 1 .079-.407 1.189 1.189 0 0 1 .388-.346 1.59 1.59 0 0 0 .6-1.586c.319.144.653-.179.8-.5s.267-.7.588-.835a4.842 4.842 0 0 1 .7-.1c.37-.1.6-.465.856-.732a6.71 6.71 0 0 1 1.979-1.211 22.386 22.386 0 0 0 5.394-4.309 18.082 18.082 0 0 0 2.325-2.6 9.56 9.56 0 0 0 .511-.837 23.682 23.682 0 0 0 1.291-2.955 3.409 3.409 0 0 0 .335-1.693.766.766 0 0 0 -.03-.156 3.255 3.255 0 0 0 -.509-1.028 4.3 4.3 0 0 0 -2.3-1.888 6.349 6.349 0 0 0 -2.955.265 7.394 7.394 0 0 1 -1 .153 9.414 9.414 0 0 1 -3.12-.491l-1.112-.307c-.556-.153-.835-.825-1.4-.944a1.888 1.888 0 0 0 -.756.04 10.413 10.413 0 0 0 -3.3 1.079 4.958 4.958 0 0 0 -.642.437 4.062 4.062 0 0 0 -1.493 2.2c-.232.97-.014 2.007-.246 2.976a6.629 6.629 0 0 1 -1.142 2.172l-2.739 3.923a24.231 24.231 0 0 1 -2.014 2.623c-1.465 1.611-4.195 2.816-4.234 4.99z" fill="#307df1" transform="translate(-602.146 -398.453)"/><path d="m789.873 404.139a4.561 4.561 0 0 0 -.493-1.556 3.525 3.525 0 0 0 -.725-.763 4.821 4.821 0 0 0 -1.553-.97 1.939 1.939 0 0 0 -1.758.2 2.347 2.347 0 0 0 -.774 1.628 3.969 3.969 0 0 0 .414 2.453 9.786 9.786 0 0 0 1.99 2.041 8 8 0 0 1 1.3 1.628 4.7 4.7 0 0 0 .591.865 1.125 1.125 0 0 0 .93.374 1.628 1.628 0 0 0 .76-.449c.284-.249 1.046-.7 1.07-1.086.019-.319-.577-1.039-.723-1.339a15.2 15.2 0 0 1 -1.025-3.03z" fill="#fbbebe" transform="translate(-608.619 -331.036)"/><path d="m720.089 600.646c.7 1.3 1.474 2.558 2.1 3.906.365.784.681 1.588 1.088 2.351.444.83.99 1.6 1.456 2.42a28.1 28.1 0 0 1 2.423 6.7 13.343 13.343 0 0 0 4.771-1.679 3 3 0 0 0 .286-.184 3.377 3.377 0 0 0 .963-1.063 22.756 22.756 0 0 0 -2.258-6.1c-.37-.6-.793-1.163-1.163-1.769-1.1-1.732-1.328-3.916-2.586-5.536a.948.948 0 0 1 0-1.125c.144-.188.377-.367.332-.6-.033-.17-.209-.323-.142-.481.033-.077.112-.119.172-.174.214-.2.186-.532.207-.821a4.023 4.023 0 0 1 .912-1.979 1.239 1.239 0 0 1 .335-.36c.114-.07.249-.1.363-.172.4-.249.372-.835.565-1.27.251-.572.884-.863 1.3-1.325.528-.591.66-1.411 1.218-1.928a1.677 1.677 0 0 1 .184-.149 9.235 9.235 0 0 0 -.328 2.7c-.054 3.125.728 6.357.363 9.461a6.524 6.524 0 0 0 3.376 6.148 16.339 16.339 0 0 0 2.63 1.107c1.344.477 2.688.967 4.006 1.518.93.386 1.86.8 2.758 1.249a33.944 33.944 0 0 1 3.255 1.8 12.556 12.556 0 0 1 3.511 2.89 3.15 3.15 0 0 0 2.269-1.249 8.754 8.754 0 0 0 1.242-2.351 6.531 6.531 0 0 0 .591-2.216.442.442 0 0 0 -.246-.4l-6.152-3.255-1.163-.609c-2.518-1.337-5.115-2.574-7.648-3.909-.17.049-.309-.144-.358-.312s-.084-.377-.244-.451c-.081-.037-.184-.037-.233-.1a.279.279 0 0 1 -.042-.2c.081-1.218.96-2.339.784-3.546a4.456 4.456 0 0 1 -.232-1.528 7.087 7.087 0 0 1 .465-.967c.3-.744 0-1.628.33-2.365a5.425 5.425 0 0 0 .444-1.507 10.2 10.2 0 0 1 .942-2.986 5.39 5.39 0 0 1 .865-1.311c.186-.2.393-.377.567-.581a4.853 4.853 0 0 0 .886-2.3 10.98 10.98 0 0 0 .121-4.485 6.384 6.384 0 0 1 -.286-1.509c0-.677.3-1.47-.165-1.96a1.534 1.534 0 0 0 -.7-.353 21.019 21.019 0 0 0 -3.337-.616l-5.129-.667a4.715 4.715 0 0 1 -1.709-.444 3.407 3.407 0 0 1 -1.442-1.841c-.9.658-1.242 1.883-1.96 2.734-.351.416-.784.751-1.163 1.132a12.822 12.822 0 0 0 -1.288 1.588 28.217 28.217 0 0 0 -2.918 4.6c-.4.858-.7 1.753-1.028 2.641-1.253 3.5-3.3 6.829-4.146 10.449a19.282 19.282 0 0 0 -.832 2.59 4.892 4.892 0 0 0 .818 2.749z" fill="#666" transform="translate(-558.533 -462.615)"/><path d="m836.017 566.606a1.591 1.591 0 0 1 .188.758c-.114-.567-.9-.881-.944-1.442-.023-.258.023-.246.184-.109.244.203.349.57.572.793z" opacity=".1" transform="translate(-647.555 -457.663)"/><path d="m826.639 576.34a1.2 1.2 0 0 1 .356.525 1.337 1.337 0 0 1 .07.914c-.114-.054-.153-.193-.188-.316a2.182 2.182 0 0 0 -.233-.542c-.093-.146-.518-.5-.514-.656-.007-.241.395-.011.509.075z" opacity=".1" transform="translate(-640.55 -465.676)"/><path d="m827.14 490.077a5.862 5.862 0 0 0 1.181.786c1.111.563 2.341.858 3.46 1.4a16.767 16.767 0 0 1 1.6.93c1.109.7 2.216 1.4 3.323 2.1a3.662 3.662 0 0 1 .733.556c.4.428.4 1.163.763 1.628a2.186 2.186 0 0 0 1.611.744 5.23 5.23 0 0 0 1.8-.3 8.886 8.886 0 0 0 1.028-.374 4.759 4.759 0 0 0 .986-.563 2.834 2.834 0 0 0 1.163-1.835 3.623 3.623 0 0 0 -.2-1.5 5.85 5.85 0 0 0 -.353-.909 3.541 3.541 0 0 0 -.284-.477 5.267 5.267 0 0 0 -3.406-1.844c-.686-.133-1.384-.214-2.072-.33a7.407 7.407 0 0 1 -1 .154 9.417 9.417 0 0 1 -3.12-.491l-1.111-.307c-.556-.153-.835-.825-1.4-.944a1.887 1.887 0 0 0 -.756.04 10.415 10.415 0 0 0 -3.3 1.079 4.952 4.952 0 0 0 -.646.457z" opacity=".1" transform="translate(-641.326 -398.384)"/><path d="m802.328 431.36c.142 1.356 1.286 2.351 1.983 3.52.34.57.577 1.193.881 1.781a17.417 17.417 0 0 0 1.163 1.86l1.244 1.807a18.7 18.7 0 0 0 2.407 3.023c1.628.277 3 1.488 4.546 2.076a23.948 23.948 0 0 0 3.888.788 5.257 5.257 0 0 1 3.406 1.844 4.844 4.844 0 0 1 .637 1.4 3.611 3.611 0 0 1 .2 1.5 2.835 2.835 0 0 1 -1.163 1.837 6.443 6.443 0 0 1 -2.011.93 5.288 5.288 0 0 1 -1.8.3 2.195 2.195 0 0 1 -1.614-.744c-.363-.465-.36-1.207-.76-1.628a3.657 3.657 0 0 0 -.732-.556l-3.324-2.098a16.791 16.791 0 0 0 -1.6-.93c-1.119-.546-2.349-.842-3.46-1.4a4.086 4.086 0 0 1 -2.365-2.716c-.677-3.764-3.283-6.938-5.511-10.047.072-.014.051-.181.077-.251a3.255 3.255 0 0 1 1.628-1.646 8.222 8.222 0 0 1 2.28-.65z" fill="#307df1" transform="translate(-619.222 -354.546)"/><path d="m865.965 422.9a2.063 2.063 0 0 1 .233-1.181 2.646 2.646 0 0 1 1.844-.974c.7-.144 1.349-.256 2.028-.353a4.674 4.674 0 0 1 1.676-.03 11.324 11.324 0 0 1 2.093.99 14.878 14.878 0 0 0 2.66.679 4.086 4.086 0 0 1 2.372 1.284 4.45 4.45 0 0 1 .723 1.942c1.063 5.727-.081 11.6-.3 17.42-.086 2.265.016 4.685 1.311 6.548l-3.769-.1a3.43 3.43 0 0 1 -4.03-2.837 6.744 6.744 0 0 1 -.484-1.941c-.058-1.367.719-2.709.465-4.055a4.572 4.572 0 0 0 -1.7-2.476 15.726 15.726 0 0 1 -2.286-2.034 7.424 7.424 0 0 1 -1.2-5.2 19.662 19.662 0 0 0 .184-3.239 4.075 4.075 0 0 0 -.853-2.269 3.2 3.2 0 0 1 -.967-2.174z" fill="#555" transform="translate(-671.115 -346.054)"/><path d="m866.192 423.215a2.589 2.589 0 0 1 1.808-.965 1.784 1.784 0 0 0 -.9.7 2.094 2.094 0 0 0 -.232 1.183 3.151 3.151 0 0 0 .965 2.174 4.055 4.055 0 0 1 .856 2.269 19.92 19.92 0 0 1 -.184 3.239 7.4 7.4 0 0 0 1.2 5.2 15.27 15.27 0 0 0 2.295 2.03 4.531 4.531 0 0 1 1.7 2.476c.251 1.344-.526 2.688-.465 4.055a6.632 6.632 0 0 0 .481 1.939 3.43 3.43 0 0 0 4.032 2.839l2.669.07c.058.1.121.2.186.291l-3.769-.1a3.43 3.43 0 0 1 -4.03-2.837 6.744 6.744 0 0 1 -.484-1.942c-.058-1.367.718-2.709.465-4.055a4.571 4.571 0 0 0 -1.7-2.476 15.727 15.727 0 0 1 -2.286-2.035 7.424 7.424 0 0 1 -1.2-5.2 19.662 19.662 0 0 0 .184-3.239 4.077 4.077 0 0 0 -.853-2.269 3.163 3.163 0 0 1 -.967-2.174 2.063 2.063 0 0 1 .229-1.173z" opacity=".1" transform="translate(-671.11 -347.554)"/><path d="m745.22 643.23 6.924 16.869a3.375 3.375 0 0 0 .963-1.063 22.755 22.755 0 0 0 -2.258-6.1c-.37-.6-.793-1.163-1.163-1.77-1.1-1.732-1.328-3.916-2.586-5.536a.949.949 0 0 1 0-1.125c.144-.188.377-.367.332-.6-.033-.17-.209-.323-.142-.481.033-.077.112-.119.172-.174.214-.2.186-.532.207-.821a4.023 4.023 0 0 1 .911-1.979 1.242 1.242 0 0 1 .335-.36c.114-.07.249-.1.363-.172.4-.249.372-.835.565-1.269.251-.572.884-.863 1.3-1.325.528-.591.66-1.411 1.218-1.928l.049-.121-.523-3.255z" opacity=".1" transform="translate(-578.454 -508.549)"/><ellipse cx="227.182" cy="153.31" fill="#307df1" rx="7.894" ry="1.518"/><g fill="#3f3d56"><ellipse cx="227.314" cy="152.664" rx=".918" ry="1.202"/><ellipse cx="227.314" cy="151.194" rx=".918" ry="1.202"/><ellipse cx="227.314" cy="149.722" rx=".918" ry="1.202"/><ellipse cx="227.314" cy="148.253" rx=".918" ry="1.202"/><ellipse cx="227.314" cy="146.781" rx=".918" ry="1.202"/><ellipse cx="227.314" cy="145.311" rx=".918" ry="1.202"/><ellipse cx="227.314" cy="143.842" rx=".918" ry="1.202"/></g><path d="m987.712 652.78a4.33 4.33 0 0 1 -.342-.5l2.414-.4-2.611.021a4.418 4.418 0 0 1 -.084-3.488l3.5 1.816-3.232-2.374a4.4 4.4 0 1 1 7.271 4.927 4.253 4.253 0 0 1 .5.8l-3.128 1.628 3.344-1.121a4.436 4.436 0 0 1 .233 1.411 17.461 17.461 0 0 0 -1.417 8.677 8.913 8.913 0 0 1 -6.446-11.4z" fill="#307df1" transform="translate(-763.839 -519.002)"/><path d="m995.575 687.837a17.466 17.466 0 0 0 -1.417 8.677 4.4 4.4 0 0 1 -6.447-5.954c-.59-.749 7.864-3.216 7.864-2.723z" opacity=".1" transform="translate(-763.839 -551.338)"/><ellipse cx="242.555" cy="136.448" fill="#307df1" rx="5.308" ry="1.021"/><ellipse cx="242.646" cy="136.015" fill="#3f3d56" rx=".618" ry=".809"/><ellipse cx="242.646" cy="135.027" fill="#3f3d56" rx=".618" ry=".809"/><ellipse cx="242.646" cy="134.037" fill="#3f3d56" rx=".618" ry=".809"/><ellipse cx="242.646" cy="133.048" fill="#3f3d56" rx=".618" ry=".809"/><ellipse cx="242.646" cy="132.06" fill="#3f3d56" rx=".618" ry=".809"/><ellipse cx="242.646" cy="131.072" fill="#3f3d56" rx=".618" ry=".809"/><ellipse cx="242.646" cy="130.082" fill="#3f3d56" rx=".618" ry=".809"/><path d="m1059.5 615.475a2.581 2.581 0 0 1 -.233-.34l1.628-.267-1.755.014a2.936 2.936 0 0 1 -.272-1.237 2.973 2.973 0 0 1 .214-1.109l2.358 1.223-2.174-1.6a2.96 2.96 0 1 1 4.883 3.313 2.928 2.928 0 0 1 .337.539l-2.107 1.1 2.246-.756a37.653 37.653 0 0 0 -.791 6.8 6 6 0 0 1 -4.336-7.67z" fill="#307df1" transform="translate(-819.166 -492.157)"/><path d="m1064.8 639.086a11.743 11.743 0 0 0 -.946 5.84 2.962 2.962 0 0 1 -4.336-4.01c-.401-.505 5.282-2.163 5.282-1.83z" opacity=".1" transform="translate(-819.182 -513.938)"/></svg>